<?xml version="1.0" encoding="UTF-8"?><svg id="Layer_1" xmlns="http://www.w3.org/2000/svg" viewBox="0 0 800 800"><defs><style>.cls-1{fill:#b20000;}</style></defs><path class="cls-1" d="M123.41,391.35v20.76c0,.7,0,2.37,.26,2.99,.22,.44,.56,.7,1.03,.96,.56,.26,1.21,.4,1.85,.4l.26,.04v1.45h-15.77v-1.45l.26-.04c3.15-.09,3.19-1.58,3.19-4.35v-9.7h-11.68v11.28c.04,.61,.13,1.18,.26,1.4,.52,1.05,1.85,1.36,2.89,1.36l.3,.04v1.45h-15.81v-1.45l.3-.04c3.06-.09,3.1-1.62,3.1-4.35l-.04-21.51c0-2.15-1.38-4.21-2.97-5.62h11.94v14.79h11.72v-14.79h12.41c-2.16,1.36-3.49,3.78-3.49,6.37Z"/><path class="cls-1" d="M166.5,407.11l-.34,10.84h-29.17v-1.45h.3c3.06-.13,3.15-1.67,3.1-4.39l-.09-20.46c0-2.63-1.29-5.14-3.45-6.58h28.4v10.1h-1.51l-.04-.22c-1.42-6.58-4.52-7.46-11.03-7.46h-3.32v12.6h.39c4.74,0,5.99-3.25,6.42-7.38l.04-.26h1.51v17.47h-1.51l-.04-.22c-.26-2.42-1.16-5.62-3.4-6.72-.95-.44-2.28-.53-3.4-.57v8.82c0,.31,0,1.01,.04,1.67,0,.7,.09,1.27,.17,1.49,.52,1.1,1.98,1.23,3.06,1.23,4.14,0,9.78-.13,11.38-4.87,.43-1.1,.65-2.33,.99-3.42l.04-.22h1.46Z"/><path class="cls-1" d="M216.61,416.51v1.45h-15.81v-1.45l.26-.04c.82,0,2.41-.13,2.41-1.27,0-.4-.13-.79-.34-1.27-.17-.44-.39-.88-.56-1.27l-1.77-3.82h-15.56c-.3,.66-3.58,7.55,.86,7.55h.26v1.54h-10.69v-1.4l.26-.04c3.23-.44,4.57-3.38,5.77-6.06l6.72-17.6c.95-2.55,.86-5.36-.26-7.81h10.6l12.45,26.12c.6,1.23,1.9,3.82,2.84,4.61,.65,.53,1.42,.7,2.28,.79h.26Zm-16.93-9.97l-8.1-15.28-5.52,15.23,13.62,.04Z"/><path class="cls-1" d="M244.92,384.2c0,1.1-1.46,4.48-2.97,7.73-1.51,3.29-3.1,6.5-3.53,7.38l-9.09,18.66h-1.72l-13.19-26.91c-1.25-2.59-3.23-4.7-5.69-6.15h12.97s6.81,15.06,10.21,22.39l5.52-11.5c1.03-2.19,2.63-6.45,2.63-8.74,0-.53-.13-1.05-.13-1.62,0-1.23,.56-3.91,2.54-3.91,1.64,0,2.46,1.36,2.46,2.68Z"/><path class="cls-1" d="M284.48,407.11l-.34,10.84h-29.17v-1.45h.3c3.06-.13,3.15-1.67,3.1-4.39l-.09-20.46c0-2.63-1.29-5.14-3.45-6.58h28.4v10.1h-1.51l-.04-.22c-1.42-6.58-4.52-7.46-11.03-7.46h-3.32v12.6h.39c4.74,0,5.99-3.25,6.42-7.38l.04-.26h1.51v17.47h-1.51l-.04-.22c-.26-2.42-1.16-5.62-3.4-6.72-.95-.44-2.28-.53-3.4-.57v8.82c0,.31,0,1.01,.04,1.67,0,.7,.09,1.27,.17,1.49,.52,1.1,1.98,1.23,3.06,1.23,4.14,0,9.78-.13,11.38-4.87,.43-1.1,.65-2.33,.99-3.42l.04-.22h1.46Z"/><path class="cls-1" d="M324.85,383.54v35.16h-1.29l-23.1-26.38v19.75c0,2.5,.86,4.04,3.49,4.39l.26,.04v1.45h-9.82v-1.49l.26-.04c2.67-.35,3.36-1.76,3.36-4.35v-21.16c0-2.2-.95-4.26-2.63-5.66h10.26l16.76,19.4v-14.14c0-1.54-.6-2.41-1.25-3.25-.17-.26-.34-.44-.47-.66-.56-.83-.9-1.4-.9-2.5,0-1.49,.95-3.12,2.76-3.12,1.42,0,2.33,1.36,2.33,2.55Z"/><path class="cls-1" d="M405.43,401.27c0,4.13-1.29,7.77-3.92,10.97-3.75,4.52-8.92,6.28-14.74,6.28s-10.9-1.62-14.69-5.97c-2.84-3.25-4.14-7.02-4.14-11.24,0-9.7,7.84-16.81,17.67-16.81,5.6,0,10.21,.57,14.52,4.61,3.62,3.29,5.3,7.42,5.3,12.16Zm-9.83,.44c0-6.15-.86-15.1-8.83-15.1s-9.01,8.87-9.01,14.93,1.34,14.66,8.96,14.66,8.88-8.47,8.88-14.49Z"/><path class="cls-1" d="M441.93,383.54v35.16h-1.29l-23.1-26.38v19.75c0,2.5,.86,4.04,3.49,4.39l.26,.04v1.45h-9.83v-1.49l.26-.04c2.67-.35,3.36-1.76,3.36-4.35v-21.16c0-2.2-.95-4.26-2.63-5.66h10.26l16.76,19.4v-14.14c0-1.54-.6-2.41-1.25-3.25-.17-.26-.34-.44-.47-.66-.56-.83-.9-1.4-.9-2.5,0-1.49,.95-3.12,2.76-3.12,1.42,0,2.33,1.36,2.33,2.55Z"/><path class="cls-1" d="M514.66,407.11l-.34,10.84h-29.17v-1.45h.3c3.06-.13,3.15-1.67,3.1-4.39l-.09-20.46c0-2.63-1.29-5.14-3.45-6.58h28.4v10.1h-1.51l-.04-.22c-1.42-6.58-4.52-7.46-11.03-7.46h-3.32v12.6h.39c4.74,0,5.99-3.25,6.42-7.38l.04-.26h1.51v17.47h-1.51l-.04-.22c-.26-2.42-1.16-5.62-3.4-6.72-.95-.44-2.28-.53-3.4-.57v8.82c0,.31,0,1.01,.04,1.67,0,.7,.09,1.27,.17,1.49,.52,1.1,1.98,1.23,3.06,1.23,4.14,0,9.78-.13,11.38-4.87,.43-1.1,.65-2.33,.99-3.42l.04-.22h1.46Z"/><path class="cls-1" d="M564.77,416.51v1.45h-15.81v-1.45l.26-.04c.82,0,2.41-.13,2.41-1.27,0-.4-.13-.79-.34-1.27-.17-.44-.39-.88-.56-1.27l-1.77-3.82h-15.56c-.3,.66-3.58,7.55,.86,7.55h.26v1.54h-10.69v-1.4l.26-.04c3.23-.44,4.57-3.38,5.77-6.06l6.72-17.6c.95-2.55,.86-5.36-.26-7.81h10.6l12.45,26.12c.6,1.23,1.9,3.82,2.84,4.61,.65,.53,1.42,.7,2.28,.79h.26Zm-16.93-9.97l-8.1-15.28-5.52,15.23,13.62,.04Z"/><path class="cls-1" d="M611.18,416.51v1.4h-11.38l-11.2-14.71h-1.85v8.78c0,.7,0,1.32,.04,1.84,.17,2.02,1.08,2.41,3.06,2.59l.26,.04v1.45h-15.43v-1.45l.3-.04c1.64-.13,2.37-.57,2.67-1.27,.21-.35,.3-.79,.34-1.32,.04-.53,.04-1.18,.04-1.84l-.04-20.54c0-2.41-1.03-4.74-2.89-6.37h14.52c2.71,0,6.68,.09,9.35,.83,3.83,1.14,6.81,4.08,6.81,8.34,0,4.7-3.36,7.24-7.54,8.3l8.1,10.58c.34,.44,.65,.88,.99,1.27,1.03,1.19,1.9,1.98,3.58,2.06l.26,.04Zm-14.39-22.17c0-5.05-2.54-6.94-7.58-6.94h-2.46v13.56h1.21c5.17,0,8.83-.88,8.83-6.63Z"/><path class="cls-1" d="M647.33,387.88v5.4c0,.92-.6,1.98-1.77,1.98-1.03,0-1.85-.79-1.85-1.8,0-.79-.43-4.7-2.28-5.53-.65-.26-1.77-.4-2.93-.4h-2.67v24.58c0,.57,0,2.59,.26,2.99,.21,.39,.6,.7,1.03,.96,.52,.26,1.16,.4,1.81,.4l.3,.04v1.45h-15.77v-1.45l.3-.04c3.1-.09,3.15-1.58,3.15-4.35v-24.58h-2.24c-3.53,0-5.56,5.09-5.56,5.93,0,.92-.78,1.8-1.81,1.8-1.46,0-1.81-1.27-1.81-2.5v-4.87c0-1.54,1.25-2.77,2.76-2.77h26.33c1.51,0,2.76,1.23,2.76,2.77Z"/><path class="cls-1" d="M688.49,391.35v20.76c0,.7,0,2.37,.26,2.99,.22,.44,.56,.7,1.03,.96,.56,.26,1.21,.4,1.85,.4l.26,.04v1.45h-15.77v-1.45l.26-.04c3.15-.09,3.19-1.58,3.19-4.35v-9.7h-11.68v11.28c.04,.61,.13,1.18,.26,1.4,.52,1.05,1.85,1.36,2.89,1.36l.3,.04v1.45h-15.81v-1.45l.3-.04c3.06-.09,3.1-1.62,3.1-4.35l-.04-21.51c0-2.15-1.38-4.21-2.97-5.62h11.94v14.79h11.72v-14.79h12.41c-2.15,1.36-3.49,3.78-3.49,6.37Z"/><path class="cls-1" d="M709.56,414.75c0,2.55-2.07,4.26-4.48,4.26s-4.48-1.71-4.48-4.26,2.11-4.3,4.48-4.3,4.48,1.8,4.48,4.3Z"/></svg>