<?xml version="1.0" encoding="UTF-8"?><svg id="Layer_1" xmlns="http://www.w3.org/2000/svg" viewBox="0 0 800 800"><defs><style>.cls-1{fill:#fff;}</style></defs><g><g><path class="cls-1" d="M128.72,457.05c-5.08-17.75-6.3-36.8-3.56-55.06,2.11-.41,5.43-1.75,6.6-2.33,1.28-.64,4.69-2.83,5.51-3.61v99.55s-.02-.07-.04-.2c-2.29-19.05-5-26.11-8.5-38.35Z"/><path class="cls-1" d="M149.52,457.05c5.08-17.75,6.3-36.38,3.56-54.64-2.11-.41-5.43-2.17-6.6-2.75-1.28-.64-4.69-2.83-5.51-3.61v99.55s.02-.07,.04-.2c2.29-19.05,5-26.11,8.5-38.35Z"/></g><circle class="cls-1" cx="139.61" cy="313.22" r="8.83"/><g><path class="cls-1" d="M138.55,323.61c.12,.2,.05,.37,.04,.55l-.07,.53c-.73,5.33-1.82,8.64-3.4,13.79-.85,2.77-1.81,5.5-2.86,8.38-1.18,3.13-2.77,6.16-6.01,7.89-3.02,1.52-6.38,2.18-9.73,2.01-4.18-.27-8.66-1.87-11.06-5.56-2.08-3.06-1.11-7.52,1.89-9.62,2.03-1.42,4.89-.84,6.68,.45-1.31-.31-2.78-.38-4.01,.09-1.73,.63-2.44,2.5-2.51,4.15,.15,4.06,5.61,5.18,9.04,4.95,3.51-.25,6.48-1.48,9.16-3.88,3.11-2.5,5.47-5.99,7.08-9.73,2.15-4.79,3.89-7.93,5.36-12.99l.14-.51c.06-.17,.06-.35,.24-.49h0Z"/><path class="cls-1" d="M140.66,323.61c.18,.15,.19,.32,.24,.49l.14,.51c1.47,5.06,3.21,8.2,5.36,12.99,1.61,3.74,3.97,7.23,7.08,9.73,2.68,2.41,5.65,3.64,9.16,3.88,3.43,.23,8.89-.89,9.04-4.95-.06-1.65-.78-3.52-2.51-4.15-1.24-.47-2.7-.4-4.01-.09,1.8-1.28,4.65-1.87,6.68-.45,3,2.09,3.96,6.55,1.89,9.62-2.4,3.69-6.88,5.29-11.06,5.56-3.35,.17-6.71-.49-9.73-2.01-3.24-1.74-4.83-4.76-6.01-7.89-1.05-2.88-2-5.61-2.86-8.38-1.59-5.16-2.67-8.47-3.4-13.79l-.07-.53c-.01-.18-.08-.35,.04-.55h0Z"/></g><g><path class="cls-1" d="M147.07,386.96c1.61-.67,3.24-1.29,4.87-1.84,2.8-.87,5.66-1.7,8.46-1.08,.96,.25,1.71,.87,2.32,1.73,.28-1.23-.26-2.6-1.23-3.45-4.48-3.68-14.41-.52-20.62,1.87-.44,.17-.87,.34-1.27,.5-.52,.21-1.01,.4-1.45,.59-1.62,.65-3.24,1.42-4.86,2.18-.38,.18-.76,.35-1.14,.53-1.85,.85-3.72,1.64-5.65,2.21-3.15,1.02-7.44,2-10.41,.96-4.16-1.39-2.81-9.25-2.22-12.68,.64-3.67,2.06-6.83,4.07-9.52,3.26-4.35,8.17-7.16,13.54-8.14,5.27-.96,13.33-1.54,20.92,1.48,0,0-10.13-5.31-23.84-2.92-.78,.13-1.54,.28-2.29,.46-.04,0-.08,.02-.11,.02h0c-8.68,2.16-15.64,8.13-18.46,16.96-1.98,6.05-3.25,13.91,1.91,18.85,5.76,5.34,16.26,2.67,22.44-.59,1.05-.54,2.08-1.14,3.05-1.79,1.22-.81,2.27-1.55,3.51-2.23,.32-.18,.65-.36,.98-.54,.28-.15,.55-.3,.83-.44,1.79-.93,3.61-1.81,5.47-2.62,.38-.17,.77-.34,1.16-.49Z"/><path class="cls-1" d="M117.73,382.32c-.98,.85-1.51,2.21-1.23,3.45,.61-.86,1.37-1.48,2.32-1.73,2.8-.62,5.65,.2,8.46,1.08,1.64,.55,3.27,1.16,4.88,1.84,.44-.2,.87-.4,1.3-.61,1.42-.66,2.89-1.35,4.35-1.94,.17-.07,.35-.14,.54-.22-6.2-2.39-16.15-5.55-20.62-1.87Z"/><path class="cls-1" d="M155.54,359.22h0s-13.58-5.94-26.43-1.59c0,0,15.14-2.7,24.67,3.4,6.08,3.89,10.27,10.18,11.54,17.43,.58,3.44,1.94,11.29-2.22,12.68-2.97,1.04-7.26,.06-10.41-.96-1.93-.57-3.8-1.36-5.65-2.21-2.01,.86-4.08,1.83-6.17,2.92-.09,.05-.19,.1-.29,.15,1.44,1.18,5.51,3.48,6.56,4.02,6.17,3.26,16.68,5.93,22.44,.59,5.16-4.93,3.89-12.8,1.91-18.85-2.54-7.96-8.46-14.47-15.96-17.59Z"/></g></g><path class="cls-1" d="M305.15,383.69v3.54h-28.7l-28.27-37.1h-4.67v22.15c0,1.77,0,3.32,.11,4.65,.44,5.09,2.72,6.09,7.72,6.53l.65,.11v3.65h-38.92v-3.65l.76-.11c4.13-.33,5.98-1.44,6.74-3.21,.54-.89,.76-1.99,.87-3.32,.11-1.33,.11-2.99,.11-4.65l-.11-51.83c0-6.09-2.61-11.96-7.28-16.06h36.64c6.85,0,16.85,.22,23.59,2.1,9.68,2.88,17.18,10.3,17.18,21.04,0,11.85-8.48,18.27-19.03,20.93l20.44,26.69c.87,1.11,1.63,2.22,2.5,3.21,2.61,2.99,4.78,4.98,9.02,5.21l.65,.11Zm-36.31-55.93c0-12.74-6.41-17.5-19.13-17.5h-6.2v34.22h3.04c13.05,0,22.29-2.22,22.29-16.72Z"/><path class="cls-1" d="M396.42,359.99l-.87,27.36h-73.6v-3.65h.76c7.72-.33,7.94-4.21,7.83-11.08l-.22-51.61c0-6.64-3.26-12.96-8.7-16.61h71.64v25.47h-3.81l-.11-.55c-3.59-16.61-11.42-18.83-27.83-18.83h-8.37v31.79h.98c11.96,0,15.11-8.2,16.2-18.61l.11-.66h3.81v44.08h-3.81l-.11-.55c-.65-6.09-2.94-14.18-8.59-16.95-2.39-1.11-5.76-1.33-8.59-1.44v22.26c0,.78,0,2.55,.11,4.21,0,1.77,.22,3.21,.44,3.77,1.3,2.77,5,3.1,7.72,3.1,10.44,0,24.68-.33,28.7-12.29,1.09-2.77,1.63-5.87,2.5-8.64l.11-.55h3.7Z"/><path class="cls-1" d="M461.14,381.35c.3,.03,.61,.04,.92,.04,2.11,0,4.06-.69,5.64-1.85-1.95,.95-4.16,1.56-6.56,1.81Zm17.27-37.97c8.7-2.33,18.37-6.98,18.37-17.72,0-3.99-1.3-7.64-3.69-10.85-7.39-10.19-20.76-10.3-31.86-10.3l-8.58-.1h-.76c-9.35,0-29.24,.22-29.24,.22,5,4.21,7.83,10.52,7.83,17.17l.11,50.62c0,1.66,0,3.21-.11,4.65-.43,4.87-2.72,6.2-7.61,6.53h-.65v3.77h41.53c14.35,0,37.07-4.32,37.07-23.14,0-13.41-11.63-18.17-22.39-20.82Zm-25.77-32.89c10.55,0,20.98,1.77,20.98,15.17s-10.65,15.18-21.09,15.51c.11-10.19,.11-20.49,.11-30.68Zm15.06,69.06c-1.95,.95-4.16,1.56-6.56,1.81-.78,.08-1.58,.12-2.41,.12-4.14,0-6.31-1.77-6.31-5.86,0-9.42,.1-18.94,.1-28.36,8.38,0,16.74,.44,21.31,7.75,1.85,2.88,2.72,6.32,2.72,9.86,0,6.9-3.44,12.07-8.86,14.68Z"/><path class="cls-1" d="M593,359.99l-.87,27.36h-73.6v-3.65h.76c7.72-.33,7.94-4.21,7.83-11.08l-.22-51.61c0-6.64-3.26-12.96-8.7-16.61h71.64v25.47h-3.81l-.11-.55c-3.59-16.61-11.42-18.83-27.83-18.83h-8.37v31.79h.98c11.96,0,15.11-8.2,16.2-18.61l.11-.66h3.81v44.08h-3.81l-.11-.55c-.65-6.09-2.94-14.18-8.59-16.95-2.39-1.11-5.76-1.33-8.59-1.44v22.26c0,.78,0,2.55,.11,4.21,0,1.77,.22,3.21,.44,3.77,1.3,2.77,5,3.1,7.72,3.1,10.44,0,24.68-.33,28.7-12.29,1.09-2.77,1.63-5.87,2.5-8.64l.11-.55h3.7Z"/><path class="cls-1" d="M695.64,357.33l-.11,30.01h-75.56v-3.65h.76c7.72-.33,7.83-4.1,7.83-10.96v-52.94c0-5.87-2.61-11.41-6.96-15.17h29.79v20.49c0,8.08-.33,16.17-.33,24.37v21.6c0,.78,0,2.44,.11,3.99,.22,3.54,.87,5.65,4.89,6.09,.98,.22,2.07,.22,3.04,.22h10.22c10.11,0,13.92-2.21,18.16-11.63,1.85-4.21,3.15-8.75,4.13-11.85v.22c.65-.78,4.02-.78,4.02-.78Z"/><path class="cls-1" d="M332.38,491.82v3.79h-41.5v-3.79h.68c8.34-.23,8.57-4.02,8.57-11.37v-59.05l-33.72,74.21h-2.59l-34.17-73.75v59.85c.11,1.61,.23,2.99,.34,3.68,1.13,3.79,4.4,5.63,8.46,6.2l.68,.11v3.91h-24.92v-3.91l.68-.11c4.62-.69,6.99-2.87,8.12-7.24,.11-.69,.11-1.72,.11-2.99v-3.22l-.11-53.07c0-5.51-1.69-11.14-4.96-15.62h30.67l25.15,54.8,24.13-54.8h31.8c-4.06,3.91-6.32,9.42-6.32,15.05v55.94c0,2.18,0,5.86,.68,7.81,1.47,2.64,4.85,3.33,7.56,3.56h.68Z"/><path class="cls-1" d="M452.93,407.27c0,2.87-3.83,11.72-7.78,20.22-3.95,8.62-8.12,17-9.25,19.3l-23.79,48.82h-4.51l-34.51-70.42c-3.27-6.78-8.46-12.29-14.89-16.08h33.94s17.82,39.4,26.73,58.59l14.43-30.1c2.71-5.74,6.88-16.89,6.88-22.86,0-1.38-.34-2.76-.34-4.25,0-3.22,1.47-10.22,6.65-10.22,4.29,0,6.43,3.56,6.43,7.01Z"/><path class="cls-1" d="M591.09,491.82v3.79h-41.5v-3.79h.68c8.34-.23,8.57-4.02,8.57-11.37v-59.05l-33.72,74.21h-2.59l-34.17-73.75v59.85c.11,1.61,.23,2.99,.34,3.68,1.13,3.79,4.4,5.63,8.46,6.2l.68,.11v3.91h-24.92v-3.91l.68-.11c4.62-.69,6.99-2.87,8.12-7.24,.11-.69,.11-1.72,.11-2.99v-3.22l-.11-53.07c0-5.51-1.69-11.14-4.96-15.62h30.67l25.15,54.8,24.13-54.8h31.8c-4.06,3.91-6.32,9.42-6.32,15.05v55.94c0,2.18,0,5.86,.68,7.81,1.47,2.64,4.85,3.33,7.56,3.56h.68Z"/><path class="cls-1" d="M695.64,416.92v14.13c0,2.41-1.58,5.17-4.62,5.17-2.71,0-4.85-2.07-4.85-4.71,0-2.07-1.13-12.29-5.98-14.47-1.69-.69-4.62-1.03-7.67-1.03h-6.99v64.33c0,1.49,0,6.78,.68,7.81,.56,1.03,1.58,1.84,2.71,2.53,1.35,.69,3.05,1.03,4.74,1.03l.79,.11v3.79h-41.27v-3.79l.79-.11c8.12-.23,8.23-4.14,8.23-11.37v-64.33h-5.86c-9.25,0-14.55,13.33-14.55,15.51,0,2.41-2.03,4.71-4.74,4.71-3.83,0-4.74-3.33-4.74-6.55v-12.75c0-4.02,3.27-7.24,7.22-7.24h68.9c3.95,0,7.22,3.22,7.22,7.24Z"/></svg>