<?xml version="1.0" encoding="UTF-8"?><svg id="Layer_1" xmlns="http://www.w3.org/2000/svg" viewBox="0 0 800 800"><g><g><path d="M391,573.84c-5.39-18.85-6.69-39.08-3.78-58.47,2.25-.43,5.76-1.86,7.01-2.47,1.36-.68,4.98-3,5.85-3.83v105.72s-.02-.07-.04-.22c-2.43-20.23-5.31-27.73-9.03-40.73Z"/><path d="M413.1,573.84c5.39-18.85,6.69-38.63,3.78-58.02-2.25-.43-5.76-2.3-7.01-2.92-1.36-.68-4.98-3-5.85-3.83v105.72s.02-.07,.04-.22c2.43-20.23,5.31-27.73,9.03-40.73Z"/></g><circle cx="402.57" cy="421.1" r="9.37"/><g><path d="M401.45,432.12c.13,.22,.06,.4,.04,.58l-.07,.56c-.78,5.66-1.93,9.17-3.61,14.65-.9,2.94-1.92,5.84-3.03,8.9-1.25,3.32-2.94,6.54-6.38,8.38-3.2,1.61-6.77,2.32-10.33,2.13-4.44-.28-9.19-1.98-11.74-5.9-2.2-3.25-1.18-7.99,2-10.21,2.16-1.51,5.19-.89,7.1,.47-1.4-.33-2.95-.4-4.26,.09-1.84,.67-2.6,2.66-2.66,4.41,.16,4.31,5.96,5.5,9.6,5.25,3.72-.27,6.88-1.57,9.73-4.13,3.31-2.66,5.81-6.37,7.52-10.34,2.28-5.09,4.13-8.42,5.69-13.8l.15-.54c.06-.18,.06-.37,.26-.52h0Z"/><path d="M403.69,432.12c.2,.15,.2,.34,.26,.52l.15,.54c1.56,5.38,3.41,8.71,5.69,13.8,1.71,3.97,4.21,7.68,7.52,10.34,2.84,2.56,6.01,3.86,9.73,4.13,3.65,.25,9.44-.95,9.6-5.25-.07-1.75-.82-3.74-2.66-4.41-1.31-.5-2.86-.42-4.26-.09,1.91-1.36,4.94-1.98,7.1-.47,3.18,2.22,4.21,6.96,2,10.21-2.55,3.92-7.3,5.62-11.74,5.9-3.56,.18-7.13-.52-10.33-2.13-3.44-1.84-5.13-5.06-6.38-8.38-1.11-3.06-2.13-5.96-3.03-8.9-1.68-5.48-2.84-8.99-3.61-14.65l-.07-.56c-.01-.19-.08-.37,.04-.58h0Z"/></g><g><path d="M410.5,499.4c1.71-.72,3.44-1.37,5.18-1.95,2.97-.93,6.01-1.8,8.98-1.15,1.02,.26,1.81,.92,2.46,1.83,.3-1.3-.27-2.76-1.31-3.66-4.75-3.91-15.3-.55-21.89,1.99-.47,.18-.92,.36-1.35,.53-.55,.22-1.07,.43-1.53,.62-1.72,.69-3.44,1.51-5.16,2.31-.4,.19-.81,.38-1.21,.56-1.96,.9-3.95,1.74-6,2.35-3.35,1.08-7.9,2.12-11.05,1.02-4.42-1.48-2.98-9.82-2.36-13.47,.68-3.89,2.19-7.25,4.32-10.11,3.46-4.62,8.68-7.6,14.38-8.64,5.6-1.02,14.16-1.64,22.22,1.57,0,0-10.76-5.64-25.32-3.1-.82,.13-1.64,.3-2.43,.49-.04,0-.08,.02-.12,.03h0c-9.21,2.29-16.61,8.64-19.6,18.01-2.1,6.42-3.45,14.78,2.03,20.01,6.12,5.67,17.26,2.83,23.83-.63,1.12-.57,2.21-1.21,3.24-1.9,1.29-.86,2.41-1.64,3.73-2.37,.34-.19,.69-.38,1.04-.57,.29-.16,.59-.32,.88-.47,1.9-.98,3.84-1.92,5.81-2.78,.41-.18,.82-.36,1.23-.52Z"/><path d="M379.34,494.48c-1.04,.9-1.6,2.35-1.31,3.66,.65-.91,1.45-1.57,2.46-1.83,2.97-.66,6,.22,8.98,1.15,1.74,.58,3.47,1.24,5.18,1.95,.46-.21,.93-.43,1.39-.65,1.51-.7,3.07-1.43,4.62-2.06,.18-.07,.37-.15,.57-.23-6.58-2.54-17.15-5.9-21.89-1.99Z"/><path d="M419.49,469.95h0s-14.42-6.31-28.07-1.69c0,0,16.07-2.86,26.2,3.61,6.46,4.13,10.9,10.82,12.26,18.51,.61,3.65,2.06,11.99-2.36,13.47-3.15,1.1-7.71,.06-11.05-1.02-2.05-.6-4.04-1.45-6-2.35-2.14,.91-4.33,1.94-6.56,3.1-.1,.05-.2,.11-.3,.16,1.53,1.25,5.85,3.7,6.97,4.27,6.55,3.46,17.72,6.3,23.83,.63,5.48-5.23,4.13-13.59,2.03-20.01-2.7-8.46-8.98-15.37-16.95-18.68Z"/></g></g><g><path d="M240.22,386.46v3.75h-30.33l-29.88-39.21h-4.94v23.41c0,1.87,0,3.51,.11,4.92,.46,5.38,2.87,6.44,8.16,6.91l.69,.12v3.86h-41.14v-3.86l.8-.12c4.37-.35,6.32-1.52,7.12-3.39,.57-.94,.8-2.11,.92-3.51,.11-1.4,.11-3.16,.11-4.92l-.11-54.78c0-6.44-2.76-12.64-7.7-16.97h38.72c7.24,0,17.81,.23,24.93,2.22,10.23,3.04,18.16,10.89,18.16,22.24,0,12.52-8.96,19.31-20.11,22.12l21.6,28.21c.92,1.17,1.72,2.34,2.64,3.39,2.76,3.16,5.06,5.27,9.54,5.5l.69,.12Zm-38.38-59.11c0-13.46-6.78-18.49-20.22-18.49h-6.55v36.17h3.22c13.79,0,23.56-2.34,23.56-17.68Z"/><path d="M336.68,361.41l-.92,28.91h-77.79v-3.86h.8c8.16-.35,8.39-4.45,8.27-11.71l-.23-54.55c0-7.02-3.45-13.69-9.19-17.56h75.72v26.92h-4.02l-.11-.58c-3.79-17.56-12.06-19.9-29.42-19.9h-8.85v33.59h1.03c12.64,0,15.97-8.66,17.12-19.66l.11-.7h4.02v46.59h-4.02l-.11-.58c-.69-6.44-3.1-14.98-9.08-17.91-2.53-1.17-6.09-1.4-9.08-1.52v23.53c0,.82,0,2.69,.11,4.45,0,1.87,.23,3.39,.46,3.98,1.38,2.93,5.29,3.28,8.16,3.28,11.03,0,26.08-.35,30.33-12.99,1.15-2.93,1.72-6.2,2.64-9.13l.11-.59h3.91Z"/><path d="M405.08,383.99c.32,.03,.64,.05,.97,.05,2.23,0,4.29-.73,5.96-1.96-2.07,1-4.4,1.65-6.93,1.91Zm18.25-40.14c9.19-2.46,19.41-7.37,19.41-18.73,0-4.21-1.38-8.07-3.9-11.47-7.81-10.77-21.95-10.89-33.67-10.89l-9.07-.11h-.81c-9.88,0-30.91,.23-30.91,.23,5.29,4.45,8.27,11.12,8.27,18.14l.12,53.5c0,1.75,0,3.4-.12,4.91-.46,5.15-2.87,6.56-8.04,6.91h-.69v3.99h43.89c15.17,0,39.18-4.56,39.18-24.46,0-14.17-12.3-19.2-23.66-22.01Zm-27.23-34.76c11.15,0,22.18,1.87,22.18,16.03s-11.26,16.04-22.29,16.39c.12-10.77,.12-21.65,.12-32.42Zm15.91,72.99c-2.07,1-4.4,1.65-6.93,1.91-.83,.08-1.67,.13-2.54,.13-4.37,0-6.67-1.87-6.67-6.2,0-9.95,.11-20.02,.11-29.97,8.85,0,17.69,.47,22.52,8.19,1.96,3.05,2.87,6.68,2.87,10.42,0,7.29-3.64,12.75-9.37,15.52Z"/><path d="M544.45,361.41l-.92,28.91h-77.79v-3.86h.8c8.16-.35,8.39-4.45,8.27-11.71l-.23-54.55c0-7.02-3.45-13.69-9.19-17.56h75.72v26.92h-4.02l-.11-.58c-3.79-17.56-12.06-19.9-29.42-19.9h-8.85v33.59h1.03c12.64,0,15.97-8.66,17.12-19.66l.11-.7h4.02v46.59h-4.02l-.11-.58c-.69-6.44-3.1-14.98-9.08-17.91-2.53-1.17-6.09-1.4-9.08-1.52v23.53c0,.82,0,2.69,.11,4.45,0,1.87,.23,3.39,.46,3.98,1.38,2.93,5.29,3.28,8.16,3.28,11.03,0,26.08-.35,30.33-12.99,1.15-2.93,1.72-6.2,2.64-9.13l.11-.59h3.91Z"/><path d="M652.93,358.6l-.11,31.72h-79.86v-3.86h.8c8.16-.35,8.27-4.33,8.27-11.59v-55.95c0-6.2-2.76-12.06-7.35-16.04h31.48v21.65c0,8.54-.34,17.09-.34,25.75v22.83c0,.82,0,2.57,.11,4.21,.23,3.75,.92,5.97,5.17,6.44,1.03,.23,2.18,.23,3.22,.23h10.8c10.69,0,14.71-2.34,19.19-12.29,1.95-4.45,3.33-9.25,4.37-12.52v.23c.69-.82,4.25-.82,4.25-.82Z"/><path d="M243.78,481.2v3.2h-35v-3.2h.57c7.04-.19,7.23-3.39,7.23-9.59v-49.81l-28.44,62.6h-2.19l-28.82-62.21v50.48c.1,1.36,.19,2.52,.29,3.1,.95,3.2,3.71,4.75,7.13,5.23l.57,.1v3.29h-21.02v-3.29l.57-.1c3.9-.58,5.9-2.42,6.85-6.1,.1-.58,.1-1.45,.1-2.52v-2.71l-.1-44.77c0-4.65-1.43-9.4-4.19-13.18h25.87l21.21,46.22,20.36-46.22h26.82c-3.42,3.29-5.33,7.95-5.33,12.69v47.19c0,1.84,0,4.94,.57,6.59,1.24,2.23,4.09,2.81,6.37,3h.57Z"/><path d="M345.47,409.88c0,2.42-3.23,9.88-6.56,17.05-3.33,7.27-6.85,14.34-7.8,16.28l-20.07,41.18h-3.81l-29.11-59.4c-2.76-5.72-7.13-10.37-12.56-13.57h28.63s15.03,33.24,22.54,49.42l12.18-25.39c2.28-4.84,5.8-14.24,5.8-19.28,0-1.16-.29-2.33-.29-3.59,0-2.71,1.24-8.62,5.61-8.62,3.61,0,5.42,3,5.42,5.91Z"/><path d="M568.92,481.2v3.2h-35v-3.2h.57c7.04-.19,7.23-3.39,7.23-9.59v-49.81l-28.44,62.6h-2.19l-28.82-62.21v50.48c.1,1.36,.19,2.52,.29,3.1,.95,3.2,3.71,4.75,7.13,5.23l.57,.1v3.29h-21.02v-3.29l.57-.1c3.9-.58,5.9-2.42,6.85-6.1,.1-.58,.1-1.45,.1-2.52v-2.71l-.1-44.77c0-4.65-1.43-9.4-4.19-13.18h25.87l21.21,46.22,20.36-46.22h26.82c-3.42,3.29-5.33,7.95-5.33,12.69v47.19c0,1.84,0,4.94,.57,6.59,1.24,2.23,4.09,2.81,6.37,3h.57Z"/><path d="M657.11,418.02v11.92c0,2.03-1.33,4.36-3.9,4.36-2.28,0-4.09-1.74-4.09-3.97,0-1.74-.95-10.37-5.04-12.21-1.43-.58-3.9-.87-6.47-.87h-5.9v54.26c0,1.26,0,5.72,.57,6.59,.48,.87,1.33,1.55,2.28,2.13,1.14,.58,2.57,.87,4,.87l.67,.1v3.2h-34.81v-3.2l.67-.1c6.85-.19,6.94-3.49,6.94-9.59v-54.26h-4.95c-7.8,0-12.27,11.24-12.27,13.08,0,2.04-1.71,3.97-3.99,3.97-3.23,0-4-2.81-4-5.52v-10.76c0-3.39,2.76-6.1,6.09-6.1h58.12c3.33,0,6.09,2.71,6.09,6.1Z"/></g></svg>