<?xml version="1.0" encoding="UTF-8"?><svg id="Layer_1" xmlns="http://www.w3.org/2000/svg" viewBox="0 0 800 800"><g><path d="M353.12,569.33c-13.89-48.55-17.24-100.67-9.74-150.61,5.78-1.12,14.85-4.78,18.05-6.37,3.51-1.75,12.82-7.73,15.07-9.87v272.32s-.06-.19-.11-.55c-6.25-52.1-13.68-71.43-23.26-104.91Z"/><path d="M410.03,569.33c13.89-48.55,17.24-99.51,9.74-149.45-5.78-1.12-14.85-5.94-18.05-7.53-3.51-1.75-12.82-7.73-15.07-9.87v272.32s.06-.19,.11-.55c6.25-52.1,13.68-71.43,23.26-104.91Z"/></g><circle cx="382.91" cy="175.9" r="24.15"/><g><path d="M380.02,204.3c.33,.56,.15,1.02,.11,1.51l-.19,1.45c-2,14.57-4.97,23.63-9.3,37.73-2.33,7.58-4.95,15.04-7.81,22.92-3.21,8.56-7.57,16.84-16.44,21.59-8.25,4.15-17.44,5.97-26.61,5.49-11.44-.73-23.68-5.11-30.25-15.2-5.68-8.38-3.04-20.58,5.16-26.3,5.56-3.89,13.37-2.29,18.28,1.22-3.6-.84-7.59-1.04-10.97,.24-4.73,1.73-6.68,6.84-6.85,11.36,.4,11.1,15.35,14.17,24.73,13.53,9.59-.68,17.72-4.04,25.05-10.63,8.52-6.85,14.96-16.4,19.37-26.62,5.88-13.11,10.64-21.7,14.66-35.54l.4-1.4c.15-.46,.16-.95,.67-1.35h0Z"/><path d="M385.8,204.3c.51,.4,.52,.89,.67,1.35l.4,1.4c4.02,13.85,8.78,22.43,14.66,35.54,4.41,10.22,10.86,19.78,19.37,26.62,7.32,6.59,15.47,9.94,25.05,10.63,9.39,.64,24.33-2.44,24.73-13.53-.17-4.52-2.12-9.63-6.85-11.36-3.38-1.28-7.38-1.08-10.97-.24,4.91-3.51,12.72-5.11,18.28-1.22,8.19,5.72,10.84,17.93,5.16,26.3-6.57,10.1-18.81,14.47-30.25,15.2-9.17,.48-18.36-1.35-26.61-5.49-8.87-4.75-13.23-13.03-16.44-21.59-2.86-7.88-5.48-15.35-7.81-22.92-4.34-14.1-7.31-23.16-9.31-37.73l-.19-1.45c-.04-.49-.22-.95,.11-1.51h0Z"/></g><g><path d="M403.32,377.6c4.4-1.85,8.86-3.54,13.33-5.03,7.66-2.39,15.48-4.65,23.14-2.95,2.62,.67,4.67,2.38,6.34,4.72,.77-3.36-.71-7.1-3.38-9.43-12.24-10.07-39.41-1.43-56.39,5.12-1.21,.47-2.37,.93-3.47,1.36-1.42,.57-2.76,1.11-3.95,1.6-4.44,1.78-8.85,3.88-13.28,5.96-1.04,.48-2.08,.97-3.11,1.44-5.06,2.32-10.16,4.49-15.45,6.05-8.62,2.79-20.34,5.47-28.47,2.63-11.38-3.81-7.67-25.29-6.08-34.7,1.76-10.03,5.63-18.69,11.14-26.04,8.91-11.89,22.35-19.59,37.04-22.27,14.42-2.63,36.47-4.22,57.24,4.04,0,0-27.72-14.52-65.21-7.99-2.12,.34-4.21,.77-6.27,1.27-.1,.02-.21,.04-.31,.07h0c-23.73,5.9-42.8,22.25-50.49,46.39-5.42,16.55-8.88,38.06,5.22,51.55,15.76,14.6,44.47,7.29,61.37-1.62,2.87-1.48,5.7-3.11,8.36-4.89,3.33-2.22,6.21-4.23,9.6-6.11,.89-.5,1.78-.98,2.68-1.46,.76-.41,1.51-.81,2.27-1.21,4.89-2.53,9.88-4.94,14.96-7.15,1.05-.46,2.11-.92,3.17-1.35Z"/><path d="M323.06,364.9c-2.67,2.33-4.13,6.06-3.38,9.43,1.67-2.34,3.73-4.05,6.34-4.72,7.65-1.69,15.46,.56,23.14,2.95,4.49,1.5,8.94,3.18,13.35,5.03,1.19-.55,2.39-1.11,3.57-1.67,3.89-1.81,7.91-3.69,11.9-5.31,.46-.19,.95-.39,1.48-.6-16.95-6.54-44.17-15.19-56.39-5.12Z"/><path d="M426.48,301.73h0s-37.14-16.24-72.3-4.35c0,0,41.41-7.38,67.5,9.29,16.64,10.63,28.08,27.86,31.58,47.69,1.58,9.41,5.3,30.88-6.08,34.7-8.11,2.84-19.85,.15-28.46-2.63-5.27-1.55-10.4-3.73-15.45-6.05-5.51,2.34-11.15,5-16.89,7.98-.26,.14-.53,.28-.78,.41,3.94,3.23,15.08,9.52,17.95,11,16.88,8.91,45.64,16.22,61.37,1.62,14.1-13.48,10.64-35,5.22-51.55-6.94-21.78-23.14-39.58-43.66-48.1Z"/></g></svg>