<?xml version="1.0" encoding="UTF-8"?><svg id="Layer_1" xmlns="http://www.w3.org/2000/svg" viewBox="0 0 800 800"><circle cx="400" cy="257.67" r="32.73"/><g><path d="M396.08,296.18c.44,.75,.2,1.38,.15,2.04l-.25,1.97c-2.71,19.76-6.73,32.03-12.61,51.15-3.16,10.27-6.71,20.39-10.59,31.08-4.36,11.61-10.26,22.83-22.28,29.27-11.19,5.62-23.64,8.09-36.08,7.45-15.51-.99-32.11-6.92-41.01-20.61-7.7-11.36-4.12-27.9,6.99-35.66,7.54-5.27,18.12-3.1,24.78,1.65-4.88-1.14-10.3-1.41-14.88,.32-6.41,2.35-9.06,9.28-9.29,15.4,.54,15.04,20.81,19.21,33.53,18.35,13-.93,24.03-5.47,33.96-14.4,11.55-9.29,20.28-22.23,26.26-36.09,7.97-17.77,14.43-29.42,19.88-48.18l.54-1.9c.21-.63,.22-1.29,.91-1.83h0Z"/><path d="M403.92,296.18c.69,.54,.7,1.2,.91,1.83l.54,1.9c5.45,18.77,11.9,30.41,19.87,48.18,5.98,13.86,14.72,26.81,26.27,36.09,9.93,8.93,20.97,13.48,33.96,14.4,12.74,.87,32.98-3.31,33.53-18.35-.24-6.13-2.88-13.05-9.29-15.4-4.58-1.74-10-1.46-14.88-.32,6.66-4.75,17.24-6.92,24.78-1.65,11.11,7.76,14.7,24.31,6.99,35.66-8.9,13.69-25.5,19.62-41.01,20.61-12.44,.65-24.88-1.83-36.08-7.45-12.02-6.44-17.93-17.67-22.28-29.27-3.88-10.69-7.43-20.81-10.59-31.08-5.88-19.12-9.91-31.4-12.62-51.15l-.25-1.97c-.05-.66-.29-1.29,.15-2.04h0Z"/></g><g><path d="M428.17,530.77c6.07-2.55,12.22-4.88,18.4-6.94,10.57-3.3,21.36-6.41,31.93-4.07,3.61,.93,6.45,3.28,8.75,6.52,1.06-4.64-.97-9.8-4.66-13.01-16.89-13.89-54.38-1.97-77.81,7.06-1.67,.65-3.28,1.28-4.78,1.88-1.97,.79-3.81,1.53-5.45,2.21-6.13,2.46-12.22,5.36-18.33,8.22-1.43,.67-2.87,1.33-4.29,1.98-6.98,3.2-14.03,6.2-21.32,8.34-11.9,3.85-28.07,7.55-39.28,3.64-15.71-5.25-10.59-34.9-8.39-47.88,2.43-13.84,7.77-25.78,15.37-35.93,12.3-16.41,30.84-27.03,51.11-30.73,19.9-3.63,50.33-5.82,78.98,5.57,0,0-38.25-20.04-89.99-11.03-2.93,.47-5.82,1.06-8.65,1.75-.14,.03-.29,.06-.43,.09h0c-32.74,8.14-59.05,30.7-69.68,64.01-7.47,22.83-12.25,52.52,7.21,71.13,21.75,20.15,61.36,10.06,84.68-2.23,3.97-2.04,7.86-4.29,11.53-6.74,4.59-3.07,8.57-5.83,13.25-8.43,1.22-.69,2.46-1.35,3.7-2.02,1.05-.56,2.09-1.12,3.13-1.67,6.75-3.5,13.64-6.81,20.65-9.87,1.45-.63,2.9-1.26,4.37-1.86Z"/><path d="M317.41,513.25c-3.68,3.21-5.7,8.36-4.66,13.01,2.3-3.23,5.15-5.59,8.75-6.52,10.55-2.34,21.34,.77,31.93,4.07,6.2,2.07,12.34,4.39,18.42,6.94,1.65-.76,3.29-1.53,4.92-2.3,5.37-2.49,10.91-5.09,16.42-7.32,.64-.26,1.31-.54,2.04-.83-23.39-9.03-60.95-20.95-77.81-7.06Z"/><path d="M460.12,426.08h0s-51.24-22.41-99.77-6c0,0,57.13-10.18,93.14,12.83,22.96,14.67,38.75,38.44,43.57,65.81,2.18,12.98,7.31,42.61-8.39,47.88-11.19,3.92-27.4,.21-39.28-3.64-7.28-2.14-14.34-5.15-21.32-8.34-7.6,3.23-15.39,6.9-23.3,11.01-.35,.19-.73,.39-1.08,.56,5.44,4.46,20.81,13.14,24.77,15.18,23.29,12.29,62.97,22.38,84.68,2.23,19.46-18.6,14.68-48.3,7.21-71.13-9.58-30.06-31.92-54.62-60.24-66.38Z"/></g></svg>